# xmcd CD database file
#
# Track frame offsets:
#	150
#	13429
#	21536
#	35836
#	53276
#	67967
#	89299
#	100334
#	114776
#	131773
#	144426
#	154659
#	171934
#	199906
#
# Disc length: 2888 seconds
#
# Revision: 0
# Processed by: cddbd v1.5.1PL0 Copyright (c) Steve Scherf et al.
# Submitted via: CDex 1.51
#
DISCID=bf0b460e
DTITLE=Phew Phew L!Ve - B-BAN
DYEAR=1900
DGENRE=Japanese Pop
TTITLE0=sing a song
TTITLE1=Love Potion NO.9
TTITLE2=Fun×4
TTITLE3=Look'in For An Echo
TTITLE4=Operator
TTITLE5=I Need You
TTITLE6=What A Wonderful World
TTITLE7=It's So Hard To Say Goodbye to Yesterday
TTITLE8=ねっ!
TTITLE9=Ob-la-di, Ob-la-da
TTITLE10=ぶん ぶん ぶん
TTITLE11=Take Me To The Stadium
TTITLE12=Come Rain or Come Shine 〜降っても晴れても〜
TTITLE13=ダンス天国
EXTD=
EXTT0=
EXTT1=
EXTT2=
EXTT3=
EXTT4=
EXTT5=
EXTT6=
EXTT7=
EXTT8=
EXTT9=
EXTT10=
EXTT11=
EXTT12=
EXTT13=
PLAYORDER=
